<svg xmlns="http://www.w3.org/2000/svg" width="32" height="32" viewBox="0 0 24 24"><!-- Icon from Fluent UI System Color Icons by Microsoft Corporation - https://github.com/microsoft/fluentui-system-icons/blob/main/LICENSE --><g fill="none"><path fill="url(#SVGdI3q65FX)" d="M12 2c5.523 0 10 4.477 10 10s-4.477 10-10 10S2 17.523 2 12S6.477 2 12 2"/><path fill="url(#SVGWoQ1GcoJ)" d="M11 8.5c0-.715.843-1.132 1.454-.72l5.622 3.117a.86.86 0 0 1 0 1.44l-5.622 3.117c-.61.412-1.454-.005-1.454-.72v-1.451l-1.972 1.093c-.543.3-1.236-.07-1.236-.702v-3.07c0-.633.693-1.003 1.236-.702L11 9.951z"/><defs><linearGradient id="SVGdI3q65FX" x1="2.714" x2="16.517" y1="5.75" y2="20.09" gradientUnits="userSpaceOnUse"><stop stop-color="#52D17C"/><stop offset="1" stop-color="#22918B"/></linearGradient><linearGradient id="SVGWoQ1GcoJ" x1="9.5" x2="16.5" y1="9" y2="16" gradientUnits="userSpaceOnUse"><stop stop-color="#ffffff"/><stop offset="1" stop-color="#E3FFD9"/></linearGradient></defs></g></svg>