<svg width="130" height="40" viewBox="0 0 130 40" fill="none" xmlns="http://www.w3.org/2000/svg">
<path fill-rule="evenodd" clip-rule="evenodd" d="M74.6051 16.0405L75.0847 16.4565L75.646 15.4716L76.5448 13.9818L76.9995 13.2174L76.5412 12.8085L74.6051 16.0405Z" fill="white"/>
<path fill-rule="evenodd" clip-rule="evenodd" d="M72.5305 14.5107L73.0598 14.8805L73.5145 13.8387L74.6656 11.332L74.1078 11.0298L72.5305 14.5107Z" fill="white"/>
<path fill-rule="evenodd" clip-rule="evenodd" d="M70.1883 13.0514L70.7531 13.3785L72.0285 9.60607L71.4707 9.35363L70.373 12.5252L70.1883 13.0514Z" fill="white"/>
<path fill-rule="evenodd" clip-rule="evenodd" d="M67.6137 11.8399L68.2212 12.0959L69.1342 8.07812L68.8464 7.96079L68.5267 7.82567L67.6137 11.8399Z" fill="white"/>
<path fill-rule="evenodd" clip-rule="evenodd" d="M40.294 4.47421L41.1892 5.86799L43.0224 8.60933L43.9496 10.0173L44.8128 9.76133L43.9496 8.38889L41.2106 4.27154L40.294 4.47421Z" fill="white"/>
<path fill-rule="evenodd" clip-rule="evenodd" d="M35.5237 5.85412L36.0424 6.54745L36.9056 7.56434L40.142 11.3404L41.0053 11.0346L39.904 9.64791L38.7388 8.2719L37.5913 6.9279L36.4367 5.54123L35.5237 5.85412Z" fill="white"/>
<path fill-rule="evenodd" clip-rule="evenodd" d="M30.6978 7.82908L33.5327 10.4815L36.4351 13.1162L37.2487 12.6611L35.8632 11.3491L34.8471 10.382L34.467 10.0549L31.6605 7.42375L30.6978 7.82908Z" fill="white"/>
<path fill-rule="evenodd" clip-rule="evenodd" d="M26.0747 10.3223L26.8349 10.9836L32.725 15.3036L33.5918 14.7952L33.2046 14.4716L28.6254 11.0725L26.9379 9.81382L26.0747 10.3223Z" fill="white"/>
<path fill-rule="evenodd" clip-rule="evenodd" d="M17.5777 17.2234L18.679 17.7247L25.2441 20.6083L26.658 21.2234L27.3223 20.4376L21.6347 17.9167L18.3522 16.4732L17.5777 17.2234Z" fill="white"/>
<path fill-rule="evenodd" clip-rule="evenodd" d="M14.0912 21.4575L14.6667 21.6388L15.2777 21.845L24.1662 24.6966L24.4326 24.277L24.7275 23.8326L23.7186 23.509L19.5514 22.1401L14.8017 20.5935L14.0912 21.4575Z" fill="white"/>
<path fill-rule="evenodd" clip-rule="evenodd" d="M11.2455 26.1345L20.9652 28.1505L22.166 28.3603L22.5994 27.4714L14.3149 25.7079L11.7038 25.171L11.2455 26.1345Z" fill="white"/>
<path fill-rule="evenodd" clip-rule="evenodd" d="M76.6473 17.8367L78.2672 19.3549L78.7681 18.6118L81.4148 14.9602L81.0702 14.5905L79.944 13.4847" fill="white"/>
<path fill-rule="evenodd" clip-rule="evenodd" d="M9.21807 31.1198L9.87884 31.1731L10.568 31.2442L14.6037 31.678L20.6111 32.2967L20.9272 31.3793L16.3835 30.8602L9.52358 30.1029L9.21807 31.1198Z" fill="white"/>
<path fill-rule="evenodd" clip-rule="evenodd" d="M63.7511 10.2114L66.2699 11.143L66.3765 10.1439L66.856 6.05143L66.9555 5.23365L67.0514 4.41587L66.0567 4.03543L64.5327 3.49498L64.3195 5.2372L64.0176 7.68343L63.7511 10.2114Z" fill="white"/>
<path fill-rule="evenodd" clip-rule="evenodd" d="M41.9221 0.252447L44.1212 4.66135L45.2366 6.84802L46.4978 9.3298L49.7981 8.77158L45.528 0H45.4924L41.9221 0.252447Z" fill="white"/>
<path fill-rule="evenodd" clip-rule="evenodd" d="M15.6179 11.8471L20.3747 14.5066L21.984 15.3884L22.762 15.8293L25.9629 17.6106L28.5704 19.0826L31.3095 16.5333L22.8011 11.52L18.9715 9.25152L17.3373 10.5671L15.6179 11.8471Z" fill="white"/>
<path fill-rule="evenodd" clip-rule="evenodd" d="M0 39.4278H19.102L20.0825 34.066H18.5087L17.3932 34.0162L10.5368 33.8633L9.42133 33.8136L8.25254 33.81L5.97892 33.7496L4.28791 33.714L3.73372 33.6607H2.56493L1.44588 33.6109L0 39.3887V39.4278Z" fill="white"/>
<path d="M39.1302 39.2202H38.1258L37.7558 38.2535H35.4449L35.0749 39.2202H34.0705L36.049 34.1831H37.1516L39.1302 39.2202ZM37.5066 37.4757L36.6003 35.0742L35.6941 37.4757H37.5066Z" fill="white"/>
<path d="M42.2253 39.2202H39.6804V34.1831H42.1574C42.6055 34.1831 42.9554 34.3064 43.2071 34.5531C43.4638 34.7948 43.5922 35.0994 43.5922 35.4669C43.5922 35.769 43.5066 36.0257 43.3355 36.2372C43.1693 36.4436 42.9629 36.572 42.7162 36.6223C42.9881 36.6626 43.2172 36.8036 43.4034 37.0452C43.5947 37.2818 43.6904 37.5537 43.6904 37.8608C43.6904 38.2636 43.5595 38.5908 43.2977 38.8426C43.0409 39.0943 42.6835 39.2202 42.2253 39.2202ZM41.9761 36.2674C42.1977 36.2674 42.3713 36.207 42.4972 36.0861C42.6231 35.9653 42.686 35.8092 42.686 35.6179C42.686 35.4216 42.6231 35.263 42.4972 35.1422C42.3713 35.0213 42.1977 34.9609 41.9761 34.9609H40.5639V36.2674H41.9761ZM42.0139 38.4423C42.2556 38.4423 42.4444 38.3819 42.5803 38.2611C42.7162 38.1352 42.7842 37.9615 42.7842 37.74C42.7842 37.5436 42.7162 37.38 42.5803 37.2491C42.4444 37.1132 42.2556 37.0452 42.0139 37.0452H40.5639V38.4423H42.0139Z" fill="white"/>
<path d="M46.551 39.2202H45.6674V34.9609H44.1419V34.1831H48.0764V34.9609H46.551V39.2202Z" fill="white"/>
<path d="M52.8323 38.5783C52.349 39.0666 51.7322 39.3108 50.9821 39.3108C50.2319 39.3108 49.6152 39.0666 49.1319 38.5783C48.6486 38.0849 48.4069 37.4606 48.4069 36.7054C48.4069 35.9502 48.6486 35.3284 49.1319 34.8401C49.6152 34.3467 50.2319 34.1 50.9821 34.1C51.7322 34.1 52.349 34.3467 52.8323 34.8401C53.3156 35.3284 53.5573 35.9502 53.5573 36.7054C53.5573 37.4606 53.3156 38.0849 52.8323 38.5783ZM50.9821 38.5254C51.4805 38.5254 51.8833 38.3542 52.1904 38.0119C52.4975 37.6645 52.651 37.229 52.651 36.7054C52.651 36.1768 52.4975 35.7413 52.1904 35.3989C51.8833 35.0566 51.4805 34.8854 50.9821 34.8854C50.4786 34.8854 50.0733 35.0566 49.7662 35.3989C49.4642 35.7413 49.3131 36.1768 49.3131 36.7054C49.3131 37.234 49.4642 37.6695 49.7662 38.0119C50.0733 38.3542 50.4786 38.5254 50.9821 38.5254Z" fill="white"/>
<path d="M56.8246 39.3108C56.0694 39.3108 55.4401 39.0691 54.9366 38.5858C54.4331 38.0975 54.1814 37.4706 54.1814 36.7054C54.1814 35.9401 54.4331 35.3158 54.9366 34.8325C55.4401 34.3442 56.0694 34.1 56.8246 34.1C57.7006 34.1 58.3752 34.4776 58.8485 35.2328L58.0933 35.6179C57.9674 35.4014 57.7887 35.2252 57.5571 35.0893C57.3305 34.9534 57.0864 34.8854 56.8246 34.8854C56.3261 34.8854 55.9108 35.0566 55.5785 35.3989C55.2513 35.7413 55.0876 36.1768 55.0876 36.7054C55.0876 37.234 55.2513 37.6695 55.5785 38.0119C55.9108 38.3542 56.3261 38.5254 56.8246 38.5254C57.0914 38.5254 57.3381 38.4574 57.5646 38.3215C57.7912 38.1856 57.9674 38.0093 58.0933 37.7929L58.8485 38.178C58.3651 38.9332 57.6905 39.3108 56.8246 39.3108Z" fill="white"/>
<path d="M64.0499 39.2202H63.0455L62.6754 38.2535H60.3646L59.9945 39.2202H58.9901L60.9687 34.1831H62.0713L64.0499 39.2202ZM62.4262 37.4757L61.52 35.0742L60.6138 37.4757H62.4262Z" fill="white"/>
<path d="M64.2753 39.3108V38.5254C64.5673 38.5254 64.7863 38.4121 64.9323 38.1856C65.0783 37.954 65.1916 37.4832 65.2721 36.7734L65.5667 34.1831H68.9877V39.2202H68.1041V34.9609H66.3596L66.1482 36.8338C66.0877 37.3523 66.0022 37.7803 65.8914 38.1176C65.7857 38.4549 65.6472 38.7091 65.476 38.8803C65.3099 39.0465 65.1337 39.1597 64.9474 39.2202C64.7662 39.2806 64.5421 39.3108 64.2753 39.3108Z" fill="white"/>
<path d="M74.2563 38.5783C73.7729 39.0666 73.1562 39.3108 72.4061 39.3108C71.6559 39.3108 71.0392 39.0666 70.5558 38.5783C70.0725 38.0849 69.8309 37.4606 69.8309 36.7054C69.8309 35.9502 70.0725 35.3284 70.5558 34.8401C71.0392 34.3467 71.6559 34.1 72.4061 34.1C73.1562 34.1 73.7729 34.3467 74.2563 34.8401C74.7396 35.3284 74.9812 35.9502 74.9812 36.7054C74.9812 37.4606 74.7396 38.0849 74.2563 38.5783ZM72.4061 38.5254C72.9045 38.5254 73.3072 38.3542 73.6143 38.0119C73.9215 37.6645 74.075 37.229 74.075 36.7054C74.075 36.1768 73.9215 35.7413 73.6143 35.3989C73.3072 35.0566 72.9045 34.8854 72.4061 34.8854C71.9026 34.8854 71.4973 35.0566 71.1902 35.3989C70.8881 35.7413 70.7371 36.1768 70.7371 36.7054C70.7371 37.234 70.8881 37.6695 71.1902 38.0119C71.4973 38.3542 71.9026 38.5254 72.4061 38.5254Z" fill="white"/>
<path d="M80.2196 39.2202H79.336V37.0226H76.7155V39.2202H75.8319V34.1831H76.7155V36.2447H79.336V34.1831H80.2196V39.2202Z" fill="white"/>
<path d="M87.6166 39.2202H86.733V37.0226H84.1125V39.2202H83.2289V34.1831H84.1125V36.2447H86.733V34.1831H87.6166V39.2202Z" fill="white"/>
<path d="M89.5397 39.2202H88.6863V34.1831H89.5699V37.6796L92.1451 34.1831H93.0513V39.2202H92.1677V35.6255L89.5397 39.2202Z" fill="white"/>
<path d="M95.7604 39.3108C95.3274 39.3108 94.9297 39.2353 94.5672 39.0842C94.2097 38.9282 93.9429 38.7318 93.7667 38.4952L94.2424 37.9137C94.4035 38.1 94.6226 38.2485 94.8995 38.3592C95.1764 38.47 95.4533 38.5254 95.7302 38.5254C96.0876 38.5254 96.367 38.4574 96.5684 38.3215C96.7748 38.1805 96.878 37.9917 96.878 37.7551C96.878 37.2819 96.4728 37.0452 95.6622 37.0452H94.6502V36.2674H95.6622C95.9995 36.2674 96.2714 36.212 96.4778 36.1012C96.6892 35.9905 96.795 35.8243 96.795 35.6028C96.795 35.3763 96.6892 35.2026 96.4778 35.0817C96.2663 34.9559 95.9995 34.8929 95.6773 34.8929C95.1235 34.8929 94.6603 35.0792 94.2878 35.4518L93.8346 34.9005C94.036 34.6639 94.3054 34.4726 94.6427 34.3266C94.985 34.1806 95.3576 34.1076 95.7604 34.1076C96.3192 34.1076 96.7773 34.2309 97.1348 34.4776C97.4973 34.7243 97.6785 35.054 97.6785 35.4669C97.6785 35.779 97.5678 36.0383 97.3463 36.2447C97.1298 36.4461 96.8755 36.572 96.5835 36.6223C96.8705 36.6475 97.1373 36.7683 97.384 36.9848C97.6307 37.2013 97.7541 37.4883 97.7541 37.8457C97.7541 38.2737 97.5653 38.6261 97.1877 38.903C96.8151 39.1748 96.3393 39.3108 95.7604 39.3108Z" fill="white"/>
<path d="M102.743 39.2202H101.656L99.964 37.0981L99.526 37.6116V39.2202H98.6424V34.1831H99.526V36.5846L101.497 34.1831H102.592L100.545 36.5619L102.743 39.2202Z" fill="white"/>
<path d="M104.186 39.2202H103.333V34.1831H104.216V37.6796L106.792 34.1831H107.698V39.2202H106.814V35.6255L104.186 39.2202Z" fill="white"/>
<path d="M113.193 39.2202H112.136L110.724 37.2491L109.312 39.2202H108.255L110.143 36.6374L108.368 34.1831H109.425L110.724 36.0333L112.015 34.1831H113.08L111.313 36.6299L113.193 39.2202Z" fill="white"/>
<path d="M119.673 40.0004V39.2202H115.7V34.1831H116.584V38.4423H119.205V34.1831H120.088V38.4423H120.556V40.0004H119.673Z" fill="white"/>
<path d="M124.683 39.2202H121.232V34.1831H124.683V34.9609H122.115V36.2674H124.63V37.0452H122.115V38.4423H124.683V39.2202Z" fill="white"/>
<path d="M129.978 39.2202H129.094V37.0226H126.474V39.2202H125.59V34.1831H126.474V36.2447H129.094V34.1831H129.978V39.2202Z" fill="white"/>
<path fill-rule="evenodd" clip-rule="evenodd" d="M45.8991 20.1435L51.1071 20.1506L43.6397 14.5933L45.8991 20.1435Z" fill="white"/>
<path fill-rule="evenodd" clip-rule="evenodd" d="M85.1868 30.5042C87.0839 30.5042 86.8139 30.65 86.8068 29.9744C86.8032 29.3877 86.8743 25.6437 86.8281 25.3771H86.9205C86.956 25.5584 87.027 25.6828 87.091 25.8357L88.2598 28.7335C88.4374 29.2135 88.2598 29.1353 89.2545 29.1353C89.4072 29.1353 89.631 28.442 89.7163 28.2393C89.8264 27.9726 90.8282 25.4802 90.949 25.3806L90.9526 26.6357C90.9561 27.1904 90.8851 30.1131 90.9526 30.5077C92.7892 30.5077 92.5725 30.6286 92.5796 30.138L92.6294 25.018C92.6365 24.7228 92.6294 24.3637 92.64 24.0864C92.6542 23.6953 92.7217 23.2722 92.5121 23.2722H90.5476C90.3415 23.2722 89.9756 24.4028 89.8833 24.6197L88.8104 27.0268C88.7749 26.8135 88.6363 26.5042 88.5653 26.33L87.7517 24.2748C87.6594 24.026 87.5741 23.8624 87.4853 23.6028C87.3503 23.2082 87.4107 23.2651 86.9382 23.2722C86.3769 23.2793 85.8085 23.2722 85.2472 23.2722C85.2117 23.8411 85.233 24.4455 85.2188 25.0464C85.1939 25.53 85.1264 30.1415 85.1868 30.5042ZM90.9277 25.2811L90.9419 25.2953C90.9455 25.2953 90.9242 25.2882 90.9277 25.2811Z" fill="white"/>
<path fill-rule="evenodd" clip-rule="evenodd" d="M94.2709 27.7104C94.9387 31.6215 100.502 31.5646 101.106 27.9237C101.671 24.4997 99.2657 22.537 96.4486 23.3157C94.8428 23.7602 93.9085 25.5664 94.2709 27.7104ZM97.7382 29.2677C95.7025 29.2677 95.5462 25.7157 96.8003 24.7877C97.1378 24.5388 97.795 24.4179 98.3137 24.6562C99.653 25.2677 99.6636 28.2651 98.605 28.9904C98.4096 29.1255 98.0827 29.2677 97.7382 29.2677Z" fill="white"/>
<path fill-rule="evenodd" clip-rule="evenodd" d="M108.993 27.7096C109.423 30.2305 111.86 31.0625 113.675 30.4616C114.393 30.2234 114.513 30.0705 114.947 29.6687C115.135 29.4945 115.103 29.5016 115.245 29.2989C115.714 28.6305 115.973 27.6314 115.909 26.7389L115.846 26.0598C115.828 25.9638 115.707 25.5229 115.661 25.3985C115.451 24.7976 115.114 24.3638 114.652 23.9656C113.366 22.8598 111.334 22.9523 110.24 23.7701C109.582 24.2607 109.177 24.9967 108.996 25.8358C108.961 26.0029 108.939 26.2092 108.925 26.4012C108.897 26.7923 108.915 27.2474 108.993 27.7096ZM112.46 29.267C110.396 29.267 110.268 25.6687 111.547 24.7692C111.888 24.5274 112.574 24.4207 113.067 24.6696C113.806 25.0429 113.938 25.8501 114.051 26.5185C114.172 27.2261 114.009 27.9123 113.817 28.3532C113.59 28.8901 113.121 29.267 112.46 29.267Z" fill="white"/>
<path fill-rule="evenodd" clip-rule="evenodd" d="M117.476 30.5017C119.515 30.5017 119.191 30.6653 119.209 29.8724L119.223 28.0448C119.22 27.7355 119.17 27.7533 119.522 27.7533C120.705 27.7533 120.755 28.4111 121.344 29.6911C121.497 30.0253 121.643 30.4982 121.817 30.4982H123.419C123.362 30.2031 122.35 28.0413 122.14 27.7355C121.98 27.5008 121.859 27.3657 121.636 27.2377L121.422 27.1097C122.804 26.9924 123.025 24.9231 122.08 23.9417C121.192 23.0173 119.142 23.2626 117.522 23.2626L117.476 30.5017ZM119.898 26.4697H119.259L119.266 24.6386C120.623 24.6386 120.776 24.6493 120.932 25.556C121.035 26.1711 120.534 26.4697 119.898 26.4697Z" fill="white"/>
<path fill-rule="evenodd" clip-rule="evenodd" d="M41.6085 30.503H43.3457L43.3812 27.7545C44.82 27.7545 44.7347 28.0283 45.4452 29.5714C45.5873 29.8843 45.7437 30.2043 45.8609 30.503C47.5128 30.503 47.6691 30.6345 47.4915 30.2577L47.0545 29.287C46.8556 28.8425 46.6815 28.4372 46.4648 28.0141C46.3263 27.7474 46.0989 27.4239 45.8431 27.271C45.7756 27.2319 45.7685 27.2354 45.7152 27.207C45.7046 27.2034 45.6939 27.1963 45.6833 27.1892C45.6726 27.1856 45.6619 27.1785 45.6513 27.1714C45.5589 27.1181 45.6158 27.1536 45.5625 27.1145C46.5039 27.0363 46.9444 26.1083 46.7597 25.0096C46.5323 23.6692 45.3884 23.271 44.0384 23.271H41.7968C41.6334 23.271 41.6724 23.4487 41.6724 23.5945C41.676 23.7723 41.6689 23.9216 41.6689 24.0603L41.6405 26.8159C41.6334 27.4488 41.6263 28.0568 41.6263 28.6399C41.6263 28.9777 41.6227 29.2337 41.6156 29.5679C41.6121 29.7457 41.6192 29.8665 41.6192 30.0408C41.6156 30.1794 41.5943 30.3501 41.6085 30.503ZM43.3919 26.471C43.3528 26.0408 43.4629 25.0168 43.399 24.6399C44.1521 24.6399 44.9337 24.519 45.0793 25.3723C45.2854 26.5919 44.1273 26.471 43.3919 26.471Z" fill="white"/>
<path fill-rule="evenodd" clip-rule="evenodd" d="M67.2178 30.5045H69.0012C69.0118 30.3196 69.2356 29.7365 69.3138 29.4805C69.3529 29.3525 69.3635 29.1747 69.5056 29.1747H72.067C72.1132 29.452 72.1913 29.6191 72.2553 29.8289C72.3334 30.0778 72.3867 30.2876 72.4755 30.5009H74.1204L73.5164 28.6876C73.1256 27.532 72.0421 24.1187 71.6975 23.2653H69.733L68.4754 26.8849C68.4185 27.0449 68.3653 27.1445 68.3049 27.3258L67.8359 28.684C67.7187 29.0538 67.2355 30.2698 67.2178 30.5045ZM70.7312 25.1818C70.9089 25.58 71.0403 26.0671 71.1718 26.5045C71.225 26.6787 71.5483 27.7453 71.6158 27.8449H69.8786L70.7312 25.1818Z" fill="white"/>
<path fill-rule="evenodd" clip-rule="evenodd" d="M55.0053 25.6504C55.421 28.0895 58.3731 27.158 58.5756 28.3526C58.6822 28.982 58.0179 29.27 57.4495 29.27C56.2416 29.27 55.2469 28.5908 55.0373 28.5375C55.0799 29.0388 54.9911 29.6362 55.0373 30.1411C55.1829 30.1517 55.4778 30.2726 55.6234 30.3188C57.0196 30.7633 58.6253 30.8344 59.6556 30.0237C60.2453 29.5615 60.3981 28.8611 60.2417 27.9437C60.089 27.0477 59.4176 26.5677 58.7177 26.3082C58.3553 26.1731 57.9326 26.0735 57.5667 25.9846C57.1226 25.8779 56.6714 25.7784 56.5968 25.3339C56.4015 24.1819 58.6253 24.4699 59.8439 25.0602L59.8545 23.5028L59.0019 23.3144C58.1209 23.1437 57.1084 23.0726 56.3517 23.3215C55.4494 23.6131 54.7886 24.3917 55.0053 25.6504Z" fill="white"/>
<path fill-rule="evenodd" clip-rule="evenodd" d="M124.682 25.6038C125.098 28.0429 128.075 27.2643 128.245 28.2598C128.459 29.5149 126.796 29.3229 125.869 29.0314C125.46 28.9034 124.881 28.5727 124.725 28.5336C124.746 28.6723 124.735 30.0234 124.714 30.0909C125.936 30.6847 128.245 30.9692 129.343 30.0198C130.288 29.2021 130.277 27.3425 128.903 26.5283C127.872 25.9167 126.416 26.1016 126.284 25.33C126.128 24.4198 127.641 24.4412 128.448 24.6509C129.411 24.8998 129.528 25.1985 129.553 24.9212V24.2136C129.556 23.986 129.581 23.7443 129.542 23.5096L129.538 23.4989L128.693 23.3069C127.638 23.0723 126.203 23.058 125.41 23.6447C125.3 23.7265 125.261 23.7834 125.165 23.8652C124.757 24.2207 124.576 24.9709 124.682 25.6038Z" fill="white"/>
<path fill-rule="evenodd" clip-rule="evenodd" d="M34.1856 27.71C34.4804 29.4416 35.8801 30.6398 37.6102 30.6398C38.2923 30.6398 39.2124 30.4087 39.7062 30.2025C39.9229 30.1136 39.8234 30.174 39.8412 29.534L39.8554 28.5314C39.3687 28.8123 38.676 29.2638 37.8766 29.2638C35.2229 29.2638 35.095 24.1118 38.3456 24.5598C38.6014 24.5954 38.8642 24.6985 39.1023 24.8087C39.5286 25.0078 39.5392 25.0682 39.7915 25.1891C39.763 24.8727 39.8412 24.0656 39.8092 23.678C39.557 23.6211 38.3775 23.0274 37.461 23.1518C36.6226 23.2656 36.0258 23.3438 35.4183 23.8736C35.1589 24.0976 34.9636 24.2576 34.7895 24.5491L34.3561 25.3918C34.1074 25.982 34.0683 27.0274 34.1856 27.71Z" fill="white"/>
<path fill-rule="evenodd" clip-rule="evenodd" d="M49.8277 27.4822L49.8348 28.972C49.8313 29.3098 49.7922 30.2271 49.8419 30.5009C51.8065 30.5009 51.5685 30.6467 51.5614 30.0173C51.5578 29.804 51.5685 29.6013 51.5685 29.4342L51.5898 27.6529C51.5933 27.3151 52.0836 26.6645 52.2612 26.3907L53.2346 24.7978C53.4051 24.5169 53.5579 24.2751 53.7248 24.0049L54.0943 23.4111C54.1369 23.3329 54.1796 23.2653 54.0055 23.2653H52.2221C52.0871 23.2653 51.4832 24.4458 51.4121 24.5667C51.27 24.812 51.167 25.0111 51.0249 25.2529C50.9361 25.4058 50.7123 25.8396 50.6164 25.9213C50.4885 25.6049 49.1883 23.5676 49.0675 23.2653H47.3303C47.4795 23.6529 49.7957 27.3045 49.8277 27.4822Z" fill="white"/>
<path fill-rule="evenodd" clip-rule="evenodd" d="M61.3874 24.7338H63.5828C63.5508 24.8369 63.5437 25.9676 63.5544 26.156C63.5651 26.412 63.5473 26.636 63.5473 26.8529C63.5473 27.1267 63.5508 27.3258 63.5437 27.5925C63.526 28.0867 63.5402 28.5347 63.5295 29.0253L63.5189 30.5009H65.2561C65.2774 30.156 65.2703 29.7507 65.2738 29.3845C65.2774 28.9827 65.2703 28.6271 65.2809 28.2538L65.3058 25.4164C65.3022 24.5631 65.1992 24.7267 65.828 24.7302C66.0554 24.7302 66.2863 24.7302 66.5137 24.7302C66.7268 24.7302 66.9435 24.7302 67.1567 24.7338C67.4835 24.7373 67.5226 24.7551 67.5261 24.4636C67.5332 24.1649 67.5475 23.5604 67.4977 23.2653H61.5081C61.3199 23.2653 61.3802 23.6244 61.3802 23.9409C61.3767 24.1827 61.3376 24.4351 61.3874 24.7338Z" fill="white"/>
<path fill-rule="evenodd" clip-rule="evenodd" d="M102.136 24.7323H104.193V26.1794C104.186 26.6808 104.182 27.1288 104.182 27.6194C104.186 28.0781 104.175 28.6114 104.164 29.0488L104.172 30.503H105.77C105.923 30.503 105.891 30.407 105.894 30.2577L105.902 29.1697C105.898 28.6648 105.923 28.1741 105.919 27.6976L105.941 25.4861C105.948 25.2585 105.969 24.967 105.93 24.7359H108.033C108.221 24.7359 108.161 24.3732 108.161 24.0639C108.161 23.8576 108.189 23.5056 108.15 23.271H102.022L102.001 24.4301C101.994 24.6008 101.948 24.7323 102.136 24.7323Z" fill="white"/>
<path fill-rule="evenodd" clip-rule="evenodd" d="M75.45 30.5031H80.1607C80.182 30.176 80.2104 29.4435 80.1464 29.0844H77.3115C77.0913 29.0844 77.1801 28.8426 77.1801 28.3057L77.2369 23.4168C77.2192 23.2284 77.1943 23.2675 76.5975 23.2711C76.2315 23.2711 75.8656 23.2711 75.4997 23.2711C75.418 24.5902 75.4642 27.1608 75.4393 28.6542C75.4322 28.9777 75.4251 29.2408 75.4251 29.5431C75.4251 29.8524 75.3931 30.1582 75.45 30.5031Z" fill="white"/>
<path d="M49.6867 4.10377H50.6495L52.5856 8.59089L51.5198 8.63711L49.6867 4.10377Z" fill="white"/>
<path d="M54.0155 4.34425H54.8574L56.179 8.71404L55.2447 8.64649L54.0155 4.34425Z" fill="white"/>
<path d="M58.1062 4.64442L58.9695 4.89687L59.3212 9.12443L58.4686 8.97865L58.1062 4.64442Z" fill="white"/>
<path d="M61.7941 5.92379L62.6361 6.16201V10.0162L61.7941 9.65357V5.92379Z" fill="white"/>
</svg>
